<?xml version="1.0" encoding="utf-8"?>
<svg xmlns="http://www.w3.org/2000/svg" xmlns:xlink="http://www.w3.org/1999/xlink" style="margin: auto; background: none; display: block; shape-rendering: auto;" width="251px" height="251px" viewBox="0 0 100 100" preserveAspectRatio="xMidYMid">
<g transform="rotate(0 50 50)">
  <rect x="47" y="21.5" rx="1.35" ry="1.35" width="6" height="15" fill="#454d5e">
    <animate attributeName="opacity" values="1;0" keyTimes="0;1" dur="0.46511627906976744s" begin="-0.41343669250646s" repeatCount="indefinite"></animate>
  </rect>
</g><g transform="rotate(40 50 50)">
  <rect x="47" y="21.5" rx="1.35" ry="1.35" width="6" height="15" fill="#454d5e">
    <animate attributeName="opacity" values="1;0" keyTimes="0;1" dur="0.46511627906976744s" begin="-0.36175710594315247s" repeatCount="indefinite"></animate>
  </rect>
</g><g transform="rotate(80 50 50)">
  <rect x="47" y="21.5" rx="1.35" ry="1.35" width="6" height="15" fill="#454d5e">
    <animate attributeName="opacity" values="1;0" keyTimes="0;1" dur="0.46511627906976744s" begin="-0.310077519379845s" repeatCount="indefinite"></animate>
  </rect>
</g><g transform="rotate(120 50 50)">
  <rect x="47" y="21.5" rx="1.35" ry="1.35" width="6" height="15" fill="#454d5e">
    <animate attributeName="opacity" values="1;0" keyTimes="0;1" dur="0.46511627906976744s" begin="-0.2583979328165375s" repeatCount="indefinite"></animate>
  </rect>
</g><g transform="rotate(160 50 50)">
  <rect x="47" y="21.5" rx="1.35" ry="1.35" width="6" height="15" fill="#454d5e">
    <animate attributeName="opacity" values="1;0" keyTimes="0;1" dur="0.46511627906976744s" begin="-0.20671834625323s" repeatCount="indefinite"></animate>
  </rect>
</g><g transform="rotate(200 50 50)">
  <rect x="47" y="21.5" rx="1.35" ry="1.35" width="6" height="15" fill="#454d5e">
    <animate attributeName="opacity" values="1;0" keyTimes="0;1" dur="0.46511627906976744s" begin="-0.1550387596899225s" repeatCount="indefinite"></animate>
  </rect>
</g><g transform="rotate(240 50 50)">
  <rect x="47" y="21.5" rx="1.35" ry="1.35" width="6" height="15" fill="#454d5e">
    <animate attributeName="opacity" values="1;0" keyTimes="0;1" dur="0.46511627906976744s" begin="-0.103359173126615s" repeatCount="indefinite"></animate>
  </rect>
</g><g transform="rotate(280 50 50)">
  <rect x="47" y="21.5" rx="1.35" ry="1.35" width="6" height="15" fill="#454d5e">
    <animate attributeName="opacity" values="1;0" keyTimes="0;1" dur="0.46511627906976744s" begin="-0.0516795865633075s" repeatCount="indefinite"></animate>
  </rect>
</g><g transform="rotate(320 50 50)">
  <rect x="47" y="21.5" rx="1.35" ry="1.35" width="6" height="15" fill="#454d5e">
    <animate attributeName="opacity" values="1;0" keyTimes="0;1" dur="0.46511627906976744s" begin="0s" repeatCount="indefinite"></animate>
  </rect>
</g>
<!-- [ldio] generated by https://loading.io/ --></svg>